<svg xmlns="http://www.w3.org/2000/svg" xmlns:xlink="http://www.w3.org/1999/xlink" id="processonSvg1000" viewBox="-18.0 51.0 696.0 556.0" width="696.0" height="556.0"><defs id="ProcessOnDefs1001"><marker id="ProcessOnMarker1040" markerUnits="userSpaceOnUse" orient="auto" markerWidth="16.23606797749979" markerHeight="10.550836550532098" viewBox="-1.0 -1.3763819204711736 16.23606797749979 10.550836550532098" refX="-1.0" refY="3.8990363547948754"><path id="ProcessOnPath1041" d="M12.0 3.8990363547948754L0.0 7.798072709589751V0.0Z" stroke="#323232" stroke-width="2.0" fill="#323232" transform="matrix(1.0,0.0,0.0,1.0,0.0,0.0)"/></marker><marker id="ProcessOnMarker1044" markerUnits="userSpaceOnUse" orient="auto" markerWidth="16.23606797749979" markerHeight="10.550836550532098" viewBox="-1.0 -1.3763819204711736 16.23606797749979 10.550836550532098" refX="-1.0" refY="3.8990363547948754"><path id="ProcessOnPath1045" d="M12.0 3.8990363547948754L0.0 7.798072709589751V0.0Z" stroke="#323232" stroke-width="2.0" fill="#323232" transform="matrix(1.0,0.0,0.0,1.0,0.0,0.0)"/></marker><marker id="ProcessOnMarker1048" markerUnits="userSpaceOnUse" orient="auto" markerWidth="16.23606797749979" markerHeight="10.550836550532098" viewBox="-1.0 -1.3763819204711736 16.23606797749979 10.550836550532098" refX="-1.0" refY="3.8990363547948754"><path id="ProcessOnPath1049" d="M12.0 3.8990363547948754L0.0 7.798072709589751V0.0Z" stroke="#323232" stroke-width="2.0" fill="#323232" transform="matrix(1.0,0.0,0.0,1.0,0.0,0.0)"/></marker><marker id="ProcessOnMarker1052" markerUnits="userSpaceOnUse" orient="auto" markerWidth="16.23606797749979" markerHeight="10.550836550532098" viewBox="-1.0 -1.3763819204711736 16.23606797749979 10.550836550532098" refX="-1.0" refY="3.8990363547948754"><path id="ProcessOnPath1053" d="M12.0 3.8990363547948754L0.0 7.798072709589751V0.0Z" stroke="#323232" stroke-width="2.0" fill="#323232" transform="matrix(1.0,0.0,0.0,1.0,0.0,0.0)"/></marker><marker id="ProcessOnMarker1056" markerUnits="userSpaceOnUse" orient="auto" markerWidth="16.23606797749979" markerHeight="10.550836550532098" viewBox="-1.0 -1.3763819204711736 16.23606797749979 10.550836550532098" refX="-1.0" refY="3.8990363547948754"><path id="ProcessOnPath1057" d="M12.0 3.8990363547948754L0.0 7.798072709589751V0.0Z" stroke="#323232" stroke-width="2.0" fill="#323232" transform="matrix(1.0,0.0,0.0,1.0,0.0,0.0)"/></marker><marker id="ProcessOnMarker1060" markerUnits="userSpaceOnUse" orient="auto" markerWidth="16.23606797749979" markerHeight="10.550836550532098" viewBox="-1.0 -1.3763819204711736 16.23606797749979 10.550836550532098" refX="-1.0" refY="3.8990363547948754"><path id="ProcessOnPath1061" d="M12.0 3.8990363547948754L0.0 7.798072709589751V0.0Z" stroke="#323232" stroke-width="2.0" fill="#323232" transform="matrix(1.0,0.0,0.0,1.0,0.0,0.0)"/></marker><marker id="ProcessOnMarker1064" markerUnits="userSpaceOnUse" orient="auto" markerWidth="16.23606797749979" markerHeight="10.550836550532098" viewBox="-1.0 -1.3763819204711736 16.23606797749979 10.550836550532098" refX="-1.0" refY="3.8990363547948754"><path id="ProcessOnPath1065" d="M12.0 3.8990363547948754L0.0 7.798072709589751V0.0Z" stroke="#323232" stroke-width="2.0" fill="#323232" transform="matrix(1.0,0.0,0.0,1.0,0.0,0.0)"/></marker><marker id="ProcessOnMarker1068" markerUnits="userSpaceOnUse" orient="auto" markerWidth="16.23606797749979" markerHeight="10.550836550532098" viewBox="-1.0 -1.3763819204711736 16.23606797749979 10.550836550532098" refX="-1.0" refY="3.8990363547948754"><path id="ProcessOnPath1069" d="M12.0 3.8990363547948754L0.0 7.798072709589751V0.0Z" stroke="#323232" stroke-width="2.0" fill="#323232" transform="matrix(1.0,0.0,0.0,1.0,0.0,0.0)"/></marker><marker id="ProcessOnMarker1076" markerUnits="userSpaceOnUse" orient="auto" markerWidth="16.23606797749979" markerHeight="10.550836550532098" viewBox="-1.0 -1.3763819204711736 16.23606797749979 10.550836550532098" refX="-1.0" refY="3.8990363547948754"><path id="ProcessOnPath1077" d="M12.0 3.8990363547948754L0.0 7.798072709589751V0.0Z" stroke="#323232" stroke-width="2.0" fill="#323232" transform="matrix(1.0,0.0,0.0,1.0,0.0,0.0)"/></marker><marker id="ProcessOnMarker1080" markerUnits="userSpaceOnUse" orient="auto" markerWidth="16.23606797749979" markerHeight="10.550836550532098" viewBox="-1.0 -1.3763819204711736 16.23606797749979 10.550836550532098" refX="-1.0" refY="3.8990363547948754"><path id="ProcessOnPath1081" d="M12.0 3.8990363547948754L0.0 7.798072709589751V0.0Z" stroke="#323232" stroke-width="2.0" fill="#323232" transform="matrix(1.0,0.0,0.0,1.0,0.0,0.0)"/></marker><marker id="ProcessOnMarker1099" markerUnits="userSpaceOnUse" orient="auto" markerWidth="16.23606797749979" markerHeight="10.550836550532098" viewBox="-1.0 -1.3763819204711736 16.23606797749979 10.550836550532098" refX="-1.0" refY="3.8990363547948754"><path id="ProcessOnPath1100" d="M12.0 3.8990363547948754L0.0 7.798072709589751V0.0Z" stroke="#323232" stroke-width="2.0" fill="#323232" transform="matrix(1.0,0.0,0.0,1.0,0.0,0.0)"/></marker><marker id="ProcessOnMarker1103" markerUnits="userSpaceOnUse" orient="auto" markerWidth="16.23606797749979" markerHeight="10.550836550532098" viewBox="-1.0 -1.3763819204711736 16.23606797749979 10.550836550532098" refX="-1.0" refY="3.8990363547948754"><path id="ProcessOnPath1104" d="M12.0 3.8990363547948754L0.0 7.798072709589751V0.0Z" stroke="#323232" stroke-width="2.0" fill="#323232" transform="matrix(1.0,0.0,0.0,1.0,0.0,0.0)"/></marker><marker id="ProcessOnMarker1107" markerUnits="userSpaceOnUse" orient="auto" markerWidth="16.23606797749979" markerHeight="10.550836550532098" viewBox="-1.0 -1.3763819204711736 16.23606797749979 10.550836550532098" refX="-1.0" refY="3.8990363547948754"><path id="ProcessOnPath1108" d="M12.0 3.8990363547948754L0.0 7.798072709589751V0.0Z" stroke="#323232" stroke-width="2.0" fill="#323232" transform="matrix(1.0,0.0,0.0,1.0,0.0,0.0)"/></marker></defs><g id="ProcessOnG1002"><path id="ProcessOnPath1003" d="M-18.0 51.0H678.0V607.0H-18.0V51.0Z" fill="none"/><g id="ProcessOnG1004"><g id="ProcessOnG1005" transform="matrix(1.0,0.0,0.0,1.0,196.0,78.0)" opacity="1.0"><path id="ProcessOnPath1006" d="M0.0 0.0L100.0 0.0L100.0 70.0L0.0 70.0Z" stroke="#323232" stroke-width="2.0" stroke-dasharray="none" opacity="1.0" fill="#ffffff"/><g id="ProcessOnG1007" transform="matrix(1.0,0.0,0.0,1.0,10.0,26.875)"><text id="ProcessOnText1008" fill="#000000" font-size="13" x="39.0" y="13.325" font-family="微软雅黑" font-weight="normal" font-style="normal" text-decoration="none" family="微软雅黑" text-anchor="middle" size="13">ESA</text></g></g><g id="ProcessOnG1009" transform="matrix(1.0,0.0,0.0,1.0,507.0,78.0)" opacity="1.0"><path id="ProcessOnPath1010" d="M0.0 0.0L100.0 0.0L100.0 70.0L0.0 70.0Z" stroke="#323232" stroke-width="2.0" stroke-dasharray="none" opacity="1.0" fill="#ffffff"/><g id="ProcessOnG1011" transform="matrix(1.0,0.0,0.0,1.0,10.0,53.75)"><text id="ProcessOnText1012" fill="#000000" font-size="13" x="39.0" y="13.325" font-family="微软雅黑" font-weight="normal" font-style="normal" text-decoration="none" family="微软雅黑" text-anchor="middle" size="13">ClientPool</text></g></g><g id="ProcessOnG1013" transform="matrix(1.0,0.0,0.0,1.0,196.0,326.0)" opacity="1.0"><path id="ProcessOnPath1014" d="M0.0 0.0L100.0 0.0L100.0 70.0L0.0 70.0Z" stroke="#323232" stroke-width="2.0" stroke-dasharray="none" opacity="1.0" fill="#ffffff"/><g id="ProcessOnG1015" transform="matrix(1.0,0.0,0.0,1.0,10.0,53.75)"><text id="ProcessOnText1016" fill="#000000" font-size="13" x="39.0" y="13.325" font-family="微软雅黑" font-weight="normal" font-style="normal" text-decoration="none" family="微软雅黑" text-anchor="middle" size="13">ClientEvent</text></g></g><g id="ProcessOnG1017" transform="matrix(1.0,0.0,0.0,1.0,368.0,396.0)" opacity="1.0"><path id="ProcessOnPath1018" d="M0.0 0.0L100.0 0.0L100.0 70.0L0.0 70.0Z" stroke="#323232" stroke-width="2.0" stroke-dasharray="none" opacity="1.0" fill="#ffffff"/><g id="ProcessOnG1019" transform="matrix(1.0,0.0,0.0,1.0,10.0,37.5)"><text id="ProcessOnText1020" fill="#000000" font-size="13" x="39.0" y="13.325" font-family="微软雅黑" font-weight="normal" font-style="normal" text-decoration="none" family="微软雅黑" text-anchor="middle" size="13">WebSocket</text><text id="ProcessOnText1021" fill="#000000" font-size="13" x="39.0" y="29.575" font-family="微软雅黑" font-weight="normal" font-style="normal" text-decoration="none" family="微软雅黑" text-anchor="middle" size="13">Server</text></g></g><g id="ProcessOnG1022" transform="matrix(1.0,0.0,0.0,1.0,507.0,396.0)" opacity="1.0"><path id="ProcessOnPath1023" d="M0.0 0.0L100.0 0.0L100.0 70.0L0.0 70.0Z" stroke="#323232" stroke-width="2.0" stroke-dasharray="none" opacity="1.0" fill="#ffffff"/><g id="ProcessOnG1024" transform="matrix(1.0,0.0,0.0,1.0,10.0,53.75)"><text id="ProcessOnText1025" fill="#000000" font-size="13" x="39.0" y="13.325" font-family="微软雅黑" font-weight="normal" font-style="normal" text-decoration="none" family="微软雅黑" text-anchor="middle" size="13">ClientResult</text></g></g><g id="ProcessOnG1026" transform="matrix(1.0,0.0,0.0,1.0,196.0,195.0)" opacity="1.0"><path id="ProcessOnPath1027" d="M0.0 0.0L100.0 0.0L100.0 70.0L0.0 70.0Z" stroke="#323232" stroke-width="2.0" stroke-dasharray="none" opacity="1.0" fill="#ffffff"/><g id="ProcessOnG1028" transform="matrix(1.0,0.0,0.0,1.0,10.0,53.75)"><text id="ProcessOnText1029" fill="#000000" font-size="13" x="39.0" y="13.325" font-family="微软雅黑" font-weight="normal" font-style="normal" text-decoration="none" family="微软雅黑" text-anchor="middle" size="13">event</text></g></g><g id="ProcessOnG1030" transform="matrix(1.0,0.0,0.0,1.0,368.0,195.0)" opacity="1.0"><path id="ProcessOnPath1031" d="M0.0 0.0L100.0 0.0L100.0 70.0L0.0 70.0Z" stroke="#323232" stroke-width="2.0" stroke-dasharray="none" opacity="1.0" fill="#ffffff"/><g id="ProcessOnG1032" transform="matrix(1.0,0.0,0.0,1.0,10.0,53.75)"><text id="ProcessOnText1033" fill="#000000" font-size="13" x="39.0" y="13.325" font-family="微软雅黑" font-weight="normal" font-style="normal" text-decoration="none" family="微软雅黑" text-anchor="middle" size="13">task</text></g></g><g id="ProcessOnG1034" transform="matrix(1.0,0.0,0.0,1.0,507.0,195.0)" opacity="1.0"><path id="ProcessOnPath1035" d="M0.0 0.0L100.0 0.0L100.0 70.0L0.0 70.0Z" stroke="#323232" stroke-width="2.0" stroke-dasharray="none" opacity="1.0" fill="#ffffff"/><g id="ProcessOnG1036" transform="matrix(1.0,0.0,0.0,1.0,10.0,53.75)"><text id="ProcessOnText1037" fill="#000000" font-size="13" x="39.0" y="13.325" font-family="微软雅黑" font-weight="normal" font-style="normal" text-decoration="none" family="微软雅黑" text-anchor="middle" size="13">result</text></g></g><g id="ProcessOnG1038"><path id="ProcessOnPath1039" d="M246.0 148.0L246.0 171.5L246.0 171.5L246.0 179.7639320225002" stroke="#323232" stroke-width="2.0" stroke-dasharray="none" fill="none" marker-end="url(#ProcessOnMarker1040)"/></g><g id="ProcessOnG1042"><path id="ProcessOnPath1043" d="M246.0 265.0L246.0 295.5L246.0 295.5L246.0 310.7639320225002" stroke="#323232" stroke-width="2.0" stroke-dasharray="none" fill="none" marker-end="url(#ProcessOnMarker1044)"/></g><g id="ProcessOnG1046"><path id="ProcessOnPath1047" d="M296.0 361.0L332.0 361.0L332.0 431.0L352.7639320225002 431.0" stroke="#323232" stroke-width="2.0" stroke-dasharray="none" fill="none" marker-end="url(#ProcessOnMarker1048)"/></g><g id="ProcessOnG1050"><path id="ProcessOnPath1051" d="M557.0 265.0L557.0 330.5L557.0 330.5L557.0 380.7639320225002" stroke="#323232" stroke-width="2.0" stroke-dasharray="none" fill="none" marker-end="url(#ProcessOnMarker1052)"/></g><g id="ProcessOnG1054"><path id="ProcessOnPath1055" d="M507.0 431.0L487.5 431.0L487.5 431.0L483.2360679774998 431.0" stroke="#323232" stroke-width="2.0" stroke-dasharray="none" fill="none" marker-end="url(#ProcessOnMarker1056)"/></g><g id="ProcessOnG1058"><path id="ProcessOnPath1059" d="M418.0 195.0L418.0 113.0L491.7639320225002 113.0" stroke="#323232" stroke-width="2.0" stroke-dasharray="none" fill="none" marker-end="url(#ProcessOnMarker1060)"/></g><g id="ProcessOnG1062"><path id="ProcessOnPath1063" d="M557.0 148.0L557.0 171.5L557.0 171.5L557.0 179.7639320225002" stroke="#323232" stroke-width="2.0" stroke-dasharray="none" fill="none" marker-end="url(#ProcessOnMarker1064)"/></g><g id="ProcessOnG1066"><path id="ProcessOnPath1067" d="M418.0 396.0L418.0 330.5L418.0 330.5L418.0 280.2360679774998" stroke="#323232" stroke-width="2.0" stroke-dasharray="none" fill="none" marker-end="url(#ProcessOnMarker1068)"/></g><g id="ProcessOnG1070" transform="matrix(1.0,0.0,0.0,1.0,368.0,517.0)" opacity="1.0"><path id="ProcessOnPath1071" d="M0.0 0.0L100.0 0.0L100.0 70.0L0.0 70.0Z" stroke="#323232" stroke-width="2.0" stroke-dasharray="none" opacity="1.0" fill="#ffffff"/><g id="ProcessOnG1072" transform="matrix(1.0,0.0,0.0,1.0,10.0,53.75)"><text id="ProcessOnText1073" fill="#000000" font-size="13" x="39.0" y="13.325" font-family="微软雅黑" font-weight="normal" font-style="normal" text-decoration="none" family="微软雅黑" text-anchor="middle" size="13">Web Client</text></g></g><g id="ProcessOnG1074"><path id="ProcessOnPath1075" d="M418.0 466.0L418.0 491.5L418.0 491.5L418.0 501.7639320225002" stroke="#323232" stroke-width="2.0" stroke-dasharray="none" fill="none" marker-end="url(#ProcessOnMarker1076)"/></g><g id="ProcessOnG1078"><path id="ProcessOnPath1079" d="M418.0 517.0L418.0 491.5L418.0 491.5L418.0 481.2360679774998" stroke="#323232" stroke-width="2.0" stroke-dasharray="none" fill="none" marker-end="url(#ProcessOnMarker1080)"/></g><g id="ProcessOnG1082" transform="matrix(1.0,0.0,0.0,1.0,2.0,169.0)" opacity="1.0"><g id="ProcessOnG1084" transform="matrix(2.7333333333333334,0.0,0.0,0.5416666666666666,0.0,0.0)"> <path fill="none" stroke="#000000" stroke-width="2" stroke-miterlimit="10" stroke-dasharray="20,8,2,8" d="M239,219.96 c0,10.518-8.524,19.04-19.04,19.04H20.04C9.524,239,1,230.478,1,219.96V20.04C1,9.524,9.524,1,20.04,1h199.92 C230.476,1,239,9.524,239,20.04V219.96z"/>  </g></g><g id="ProcessOnG1085" transform="matrix(1.0,0.0,0.0,1.0,49.0,78.0)" opacity="1.0"><path id="ProcessOnPath1086" d="M0.0 0.0L100.0 0.0L100.0 70.0L0.0 70.0Z" stroke="#323232" stroke-width="2.0" stroke-dasharray="none" opacity="1.0" fill="#ffffff"/><g id="ProcessOnG1087" transform="matrix(1.0,0.0,0.0,1.0,10.0,26.875)"><text id="ProcessOnText1088" fill="#000000" font-size="13" x="39.0" y="13.325" font-family="微软雅黑" font-weight="normal" font-style="normal" text-decoration="none" family="微软雅黑" text-anchor="middle" size="13">Call Center</text></g></g><g id="ProcessOnG1089" transform="matrix(1.0,0.0,0.0,1.0,49.0,195.0)" opacity="1.0"><path id="ProcessOnPath1090" d="M0.0 0.0L100.0 0.0L100.0 70.0L0.0 70.0Z" stroke="#323232" stroke-width="2.0" stroke-dasharray="none" opacity="1.0" fill="#ffffff"/><g id="ProcessOnG1091" transform="matrix(1.0,0.0,0.0,1.0,10.0,53.75)"><text id="ProcessOnText1092" fill="#000000" font-size="13" x="39.0" y="13.325" font-family="微软雅黑" font-weight="normal" font-style="normal" text-decoration="none" family="微软雅黑" text-anchor="middle" size="13">popup</text></g></g><g id="ProcessOnG1093" transform="matrix(1.0,0.0,0.0,1.0,49.0,403.0)" opacity="1.0"><path id="ProcessOnPath1094" d="M0.0 0.0L100.0 0.0L100.0 70.0L0.0 70.0Z" stroke="#323232" stroke-width="2.0" stroke-dasharray="none" opacity="1.0" fill="#ffffff"/><g id="ProcessOnG1095" transform="matrix(1.0,0.0,0.0,1.0,10.0,53.75)"><text id="ProcessOnText1096" fill="#000000" font-size="13" x="39.0" y="13.325" font-family="微软雅黑" font-weight="normal" font-style="normal" text-decoration="none" family="微软雅黑" text-anchor="middle" size="13">ClientPopUp</text></g></g><g id="ProcessOnG1097"><path id="ProcessOnPath1098" d="M99.0 148.0L99.0 171.5L99.0 171.5L99.0 179.7639320225002" stroke="#323232" stroke-width="2.0" stroke-dasharray="none" fill="none" marker-end="url(#ProcessOnMarker1099)"/></g><g id="ProcessOnG1101"><path id="ProcessOnPath1102" d="M99.0 265.0L99.0 334.0L99.0 334.0L99.0 387.7639320225002" stroke="#323232" stroke-width="2.0" stroke-dasharray="none" fill="none" marker-end="url(#ProcessOnMarker1103)"/></g><g id="ProcessOnG1105"><path id="ProcessOnPath1106" d="M99.0 473.0L99.0 503.0L332.0 503.0L332.0 431.0L352.7639320225002 431.0" stroke="#323232" stroke-width="2.0" stroke-dasharray="none" fill="none" marker-end="url(#ProcessOnMarker1107)"/></g><g id="ProcessOnG1109" transform="matrix(1.0,0.0,0.0,1.0,62.5,210.5)" opacity="1.0"><g id="ProcessOnG1111" transform="matrix(1.06,0.0,0.0,1.3695652173913044,0.0,0.0)"> <path fill="#00BCF2" d="M1.544,22.725c-0.615-0.384-1.05-0.887-1.316-1.526C0.03,20.725,0,19.402,0,11.26V1.869l0.366-0.625 C0.61,0.826,0.944,0.515,1.368,0.309L2.005,0H34.82h32.815l0.5,0.438c0.618,0.544,1.646,2.033,3.006,4.353 C72.336,6.835,75,11.782,75,11.963c0,0.065-0.572,1.104-1.271,2.299c-2.737,4.685-4.373,7.176-5.381,8.185L67.794,23H34.89 C3.047,23,1.971,22.99,1.544,22.725L1.544,22.725z M67.828,20.567c1.119-1.469,5.26-8.292,5.26-8.666 c0-0.384-3.979-7.434-5.324-9.435l-0.57-0.848L34.615,1.656C2.557,1.694,2.032,1.7,1.826,1.982c-0.175,0.239-0.208,1.74-0.208,9.242 c0,5.07,0.059,9.112,0.135,9.311c0.074,0.198,0.245,0.468,0.378,0.603c0.226,0.226,2.646,0.241,32.69,0.208l32.447-0.038 L67.828,20.567L67.828,20.567z M4.543,19.004c-0.211-0.077-0.458-0.31-0.551-0.513C3.874,18.23,3.824,16.157,3.824,11.5V4.88 l0.355-0.415l0.354-0.413l8.579-0.043c4.719-0.023,8.797-0.003,9.065,0.045c0.267,0.049,0.615,0.217,0.772,0.375 c0.275,0.275,0.286,0.549,0.286,7.194c0,6.834,0,6.911-0.309,7.189c-0.296,0.268-0.684,0.281-9.155,0.308 C8.36,19.139,4.777,19.09,4.543,19.004L4.543,19.004z M21.176,12.672c0-3.391-0.039-4.262-0.184-4.173 c-0.101,0.063-1.64,1.25-3.419,2.639c-3.876,3.025-3.941,3.07-4.336,2.945c-0.169-0.055-1.645-1.14-3.28-2.413 c-1.634-1.272-3.22-2.503-3.523-2.733l-0.551-0.42v4.22v4.219h7.647h7.647L21.176,12.672L21.176,12.672z M17.572,8.542l2.94-2.277 l-3.565-0.039c-1.961-0.022-5.145-0.022-7.075,0l-3.51,0.039l3.54,2.759l3.54,2.757l0.596-0.482 C14.364,11.035,15.955,9.793,17.572,8.542z M25.896,19.006c-0.751-0.304-0.739-0.188-0.744-7.315c0-4.676,0.045-6.773,0.163-7.034 c0.092-0.202,0.366-0.438,0.61-0.522c0.629-0.22,17.248-0.212,17.88,0.009c0.256,0.089,0.531,0.284,0.609,0.433 c0.088,0.165,0.145,2.931,0.145,7.113c0,6.771,0,6.847-0.31,7.124c-0.295,0.269-0.685,0.281-9.154,0.311 c-5.478,0.02-8.98-0.026-9.199-0.114V19.006z M42.499,12.672c0-3.391-0.037-4.262-0.183-4.173c-0.103,0.063-1.674,1.274-3.493,2.691 c-3.771,2.938-3.96,3.057-4.443,2.805c-0.185-0.099-1.792-1.307-3.572-2.687c-1.78-1.379-3.318-2.572-3.419-2.651 c-0.146-0.114-0.184,0.725-0.184,4.076v4.221h7.647h7.646L42.499,12.672L42.499,12.672z M39.325,8.202l2.483-1.937l-3.552-0.039 c-1.953-0.022-5.131-0.022-7.062,0l-3.509,0.039l3.526,2.761l3.525,2.76l1.05-0.824C36.365,10.51,37.957,9.266,39.325,8.202z M47.133,18.998c-0.671-0.372-0.662-0.273-0.656-7.416c0-7.318-0.016-7.143,0.789-7.449c0.572-0.219,17.234-0.21,17.862,0.01 c0.257,0.088,0.53,0.284,0.61,0.432c0.088,0.166,0.145,2.908,0.145,7.045c0,6.452-0.015,6.792-0.281,7.124l-0.281,0.349 l-8.946,0.033C50.051,19.152,47.34,19.115,47.133,18.998L47.133,18.998z M63.823,12.672c0-3.39-0.038-4.262-0.185-4.174 c-0.101,0.062-1.673,1.272-3.492,2.692c-3.771,2.938-3.959,3.057-4.442,2.805c-0.185-0.099-1.793-1.307-3.572-2.687 c-1.778-1.379-3.317-2.572-3.419-2.651c-0.145-0.114-0.184,0.725-0.184,4.076v4.221h7.646h7.646L63.823,12.672L63.823,12.672z M59.582,6.227c-1.953-0.022-5.139-0.022-7.074,0l-3.521,0.039l3.533,2.752l3.535,2.753l3.539-2.753l3.543-2.752L59.582,6.227z"/>  </g></g><g id="ProcessOnG1112" transform="matrix(1.0,0.0,0.0,1.0,208.5,210.5)" opacity="1.0"><g id="ProcessOnG1114" transform="matrix(1.06,0.0,0.0,1.3695652173913044,0.0,0.0)"> <path fill="#00BCF2" d="M1.544,22.725c-0.615-0.384-1.05-0.887-1.316-1.526C0.03,20.725,0,19.402,0,11.26V1.869l0.366-0.625 C0.61,0.826,0.944,0.515,1.368,0.309L2.005,0H34.82h32.815l0.5,0.438c0.618,0.544,1.646,2.033,3.006,4.353 C72.336,6.835,75,11.782,75,11.963c0,0.065-0.572,1.104-1.271,2.299c-2.737,4.685-4.373,7.176-5.381,8.185L67.794,23H34.89 C3.047,23,1.971,22.99,1.544,22.725L1.544,22.725z M67.828,20.567c1.119-1.469,5.26-8.292,5.26-8.666 c0-0.384-3.979-7.434-5.324-9.435l-0.57-0.848L34.615,1.656C2.557,1.694,2.032,1.7,1.826,1.982c-0.175,0.239-0.208,1.74-0.208,9.242 c0,5.07,0.059,9.112,0.135,9.311c0.074,0.198,0.245,0.468,0.378,0.603c0.226,0.226,2.646,0.241,32.69,0.208l32.447-0.038 L67.828,20.567L67.828,20.567z M4.543,19.004c-0.211-0.077-0.458-0.31-0.551-0.513C3.874,18.23,3.824,16.157,3.824,11.5V4.88 l0.355-0.415l0.354-0.413l8.579-0.043c4.719-0.023,8.797-0.003,9.065,0.045c0.267,0.049,0.615,0.217,0.772,0.375 c0.275,0.275,0.286,0.549,0.286,7.194c0,6.834,0,6.911-0.309,7.189c-0.296,0.268-0.684,0.281-9.155,0.308 C8.36,19.139,4.777,19.09,4.543,19.004L4.543,19.004z M21.176,12.672c0-3.391-0.039-4.262-0.184-4.173 c-0.101,0.063-1.64,1.25-3.419,2.639c-3.876,3.025-3.941,3.07-4.336,2.945c-0.169-0.055-1.645-1.14-3.28-2.413 c-1.634-1.272-3.22-2.503-3.523-2.733l-0.551-0.42v4.22v4.219h7.647h7.647L21.176,12.672L21.176,12.672z M17.572,8.542l2.94-2.277 l-3.565-0.039c-1.961-0.022-5.145-0.022-7.075,0l-3.51,0.039l3.54,2.759l3.54,2.757l0.596-0.482 C14.364,11.035,15.955,9.793,17.572,8.542z M25.896,19.006c-0.751-0.304-0.739-0.188-0.744-7.315c0-4.676,0.045-6.773,0.163-7.034 c0.092-0.202,0.366-0.438,0.61-0.522c0.629-0.22,17.248-0.212,17.88,0.009c0.256,0.089,0.531,0.284,0.609,0.433 c0.088,0.165,0.145,2.931,0.145,7.113c0,6.771,0,6.847-0.31,7.124c-0.295,0.269-0.685,0.281-9.154,0.311 c-5.478,0.02-8.98-0.026-9.199-0.114V19.006z M42.499,12.672c0-3.391-0.037-4.262-0.183-4.173c-0.103,0.063-1.674,1.274-3.493,2.691 c-3.771,2.938-3.96,3.057-4.443,2.805c-0.185-0.099-1.792-1.307-3.572-2.687c-1.78-1.379-3.318-2.572-3.419-2.651 c-0.146-0.114-0.184,0.725-0.184,4.076v4.221h7.647h7.646L42.499,12.672L42.499,12.672z M39.325,8.202l2.483-1.937l-3.552-0.039 c-1.953-0.022-5.131-0.022-7.062,0l-3.509,0.039l3.526,2.761l3.525,2.76l1.05-0.824C36.365,10.51,37.957,9.266,39.325,8.202z M47.133,18.998c-0.671-0.372-0.662-0.273-0.656-7.416c0-7.318-0.016-7.143,0.789-7.449c0.572-0.219,17.234-0.21,17.862,0.01 c0.257,0.088,0.53,0.284,0.61,0.432c0.088,0.166,0.145,2.908,0.145,7.045c0,6.452-0.015,6.792-0.281,7.124l-0.281,0.349 l-8.946,0.033C50.051,19.152,47.34,19.115,47.133,18.998L47.133,18.998z M63.823,12.672c0-3.39-0.038-4.262-0.185-4.174 c-0.101,0.062-1.673,1.272-3.492,2.692c-3.771,2.938-3.959,3.057-4.442,2.805c-0.185-0.099-1.793-1.307-3.572-2.687 c-1.778-1.379-3.317-2.572-3.419-2.651c-0.145-0.114-0.184,0.725-0.184,4.076v4.221h7.646h7.646L63.823,12.672L63.823,12.672z M59.582,6.227c-1.953-0.022-5.139-0.022-7.074,0l-3.521,0.039l3.533,2.752l3.535,2.753l3.539-2.753l3.543-2.752L59.582,6.227z"/>  </g></g><g id="ProcessOnG1115" transform="matrix(1.0,0.0,0.0,1.0,380.5,210.5)" opacity="1.0"><g id="ProcessOnG1117" transform="matrix(1.06,0.0,0.0,1.3695652173913044,0.0,0.0)"> <path fill="#00BCF2" d="M1.544,22.725c-0.615-0.384-1.05-0.887-1.316-1.526C0.03,20.725,0,19.402,0,11.26V1.869l0.366-0.625 C0.61,0.826,0.944,0.515,1.368,0.309L2.005,0H34.82h32.815l0.5,0.438c0.618,0.544,1.646,2.033,3.006,4.353 C72.336,6.835,75,11.782,75,11.963c0,0.065-0.572,1.104-1.271,2.299c-2.737,4.685-4.373,7.176-5.381,8.185L67.794,23H34.89 C3.047,23,1.971,22.99,1.544,22.725L1.544,22.725z M67.828,20.567c1.119-1.469,5.26-8.292,5.26-8.666 c0-0.384-3.979-7.434-5.324-9.435l-0.57-0.848L34.615,1.656C2.557,1.694,2.032,1.7,1.826,1.982c-0.175,0.239-0.208,1.74-0.208,9.242 c0,5.07,0.059,9.112,0.135,9.311c0.074,0.198,0.245,0.468,0.378,0.603c0.226,0.226,2.646,0.241,32.69,0.208l32.447-0.038 L67.828,20.567L67.828,20.567z M4.543,19.004c-0.211-0.077-0.458-0.31-0.551-0.513C3.874,18.23,3.824,16.157,3.824,11.5V4.88 l0.355-0.415l0.354-0.413l8.579-0.043c4.719-0.023,8.797-0.003,9.065,0.045c0.267,0.049,0.615,0.217,0.772,0.375 c0.275,0.275,0.286,0.549,0.286,7.194c0,6.834,0,6.911-0.309,7.189c-0.296,0.268-0.684,0.281-9.155,0.308 C8.36,19.139,4.777,19.09,4.543,19.004L4.543,19.004z M21.176,12.672c0-3.391-0.039-4.262-0.184-4.173 c-0.101,0.063-1.64,1.25-3.419,2.639c-3.876,3.025-3.941,3.07-4.336,2.945c-0.169-0.055-1.645-1.14-3.28-2.413 c-1.634-1.272-3.22-2.503-3.523-2.733l-0.551-0.42v4.22v4.219h7.647h7.647L21.176,12.672L21.176,12.672z M17.572,8.542l2.94-2.277 l-3.565-0.039c-1.961-0.022-5.145-0.022-7.075,0l-3.51,0.039l3.54,2.759l3.54,2.757l0.596-0.482 C14.364,11.035,15.955,9.793,17.572,8.542z M25.896,19.006c-0.751-0.304-0.739-0.188-0.744-7.315c0-4.676,0.045-6.773,0.163-7.034 c0.092-0.202,0.366-0.438,0.61-0.522c0.629-0.22,17.248-0.212,17.88,0.009c0.256,0.089,0.531,0.284,0.609,0.433 c0.088,0.165,0.145,2.931,0.145,7.113c0,6.771,0,6.847-0.31,7.124c-0.295,0.269-0.685,0.281-9.154,0.311 c-5.478,0.02-8.98-0.026-9.199-0.114V19.006z M42.499,12.672c0-3.391-0.037-4.262-0.183-4.173c-0.103,0.063-1.674,1.274-3.493,2.691 c-3.771,2.938-3.96,3.057-4.443,2.805c-0.185-0.099-1.792-1.307-3.572-2.687c-1.78-1.379-3.318-2.572-3.419-2.651 c-0.146-0.114-0.184,0.725-0.184,4.076v4.221h7.647h7.646L42.499,12.672L42.499,12.672z M39.325,8.202l2.483-1.937l-3.552-0.039 c-1.953-0.022-5.131-0.022-7.062,0l-3.509,0.039l3.526,2.761l3.525,2.76l1.05-0.824C36.365,10.51,37.957,9.266,39.325,8.202z M47.133,18.998c-0.671-0.372-0.662-0.273-0.656-7.416c0-7.318-0.016-7.143,0.789-7.449c0.572-0.219,17.234-0.21,17.862,0.01 c0.257,0.088,0.53,0.284,0.61,0.432c0.088,0.166,0.145,2.908,0.145,7.045c0,6.452-0.015,6.792-0.281,7.124l-0.281,0.349 l-8.946,0.033C50.051,19.152,47.34,19.115,47.133,18.998L47.133,18.998z M63.823,12.672c0-3.39-0.038-4.262-0.185-4.174 c-0.101,0.062-1.673,1.272-3.492,2.692c-3.771,2.938-3.959,3.057-4.442,2.805c-0.185-0.099-1.793-1.307-3.572-2.687 c-1.778-1.379-3.317-2.572-3.419-2.651c-0.145-0.114-0.184,0.725-0.184,4.076v4.221h7.646h7.646L63.823,12.672L63.823,12.672z M59.582,6.227c-1.953-0.022-5.139-0.022-7.074,0l-3.521,0.039l3.533,2.752l3.535,2.753l3.539-2.753l3.543-2.752L59.582,6.227z"/>  </g></g><g id="ProcessOnG1118" transform="matrix(1.0,0.0,0.0,1.0,517.25,210.5)" opacity="1.0"><g id="ProcessOnG1120" transform="matrix(1.06,0.0,0.0,1.3695652173913044,0.0,0.0)"> <path fill="#00BCF2" d="M1.544,22.725c-0.615-0.384-1.05-0.887-1.316-1.526C0.03,20.725,0,19.402,0,11.26V1.869l0.366-0.625 C0.61,0.826,0.944,0.515,1.368,0.309L2.005,0H34.82h32.815l0.5,0.438c0.618,0.544,1.646,2.033,3.006,4.353 C72.336,6.835,75,11.782,75,11.963c0,0.065-0.572,1.104-1.271,2.299c-2.737,4.685-4.373,7.176-5.381,8.185L67.794,23H34.89 C3.047,23,1.971,22.99,1.544,22.725L1.544,22.725z M67.828,20.567c1.119-1.469,5.26-8.292,5.26-8.666 c0-0.384-3.979-7.434-5.324-9.435l-0.57-0.848L34.615,1.656C2.557,1.694,2.032,1.7,1.826,1.982c-0.175,0.239-0.208,1.74-0.208,9.242 c0,5.07,0.059,9.112,0.135,9.311c0.074,0.198,0.245,0.468,0.378,0.603c0.226,0.226,2.646,0.241,32.69,0.208l32.447-0.038 L67.828,20.567L67.828,20.567z M4.543,19.004c-0.211-0.077-0.458-0.31-0.551-0.513C3.874,18.23,3.824,16.157,3.824,11.5V4.88 l0.355-0.415l0.354-0.413l8.579-0.043c4.719-0.023,8.797-0.003,9.065,0.045c0.267,0.049,0.615,0.217,0.772,0.375 c0.275,0.275,0.286,0.549,0.286,7.194c0,6.834,0,6.911-0.309,7.189c-0.296,0.268-0.684,0.281-9.155,0.308 C8.36,19.139,4.777,19.09,4.543,19.004L4.543,19.004z M21.176,12.672c0-3.391-0.039-4.262-0.184-4.173 c-0.101,0.063-1.64,1.25-3.419,2.639c-3.876,3.025-3.941,3.07-4.336,2.945c-0.169-0.055-1.645-1.14-3.28-2.413 c-1.634-1.272-3.22-2.503-3.523-2.733l-0.551-0.42v4.22v4.219h7.647h7.647L21.176,12.672L21.176,12.672z M17.572,8.542l2.94-2.277 l-3.565-0.039c-1.961-0.022-5.145-0.022-7.075,0l-3.51,0.039l3.54,2.759l3.54,2.757l0.596-0.482 C14.364,11.035,15.955,9.793,17.572,8.542z M25.896,19.006c-0.751-0.304-0.739-0.188-0.744-7.315c0-4.676,0.045-6.773,0.163-7.034 c0.092-0.202,0.366-0.438,0.61-0.522c0.629-0.22,17.248-0.212,17.88,0.009c0.256,0.089,0.531,0.284,0.609,0.433 c0.088,0.165,0.145,2.931,0.145,7.113c0,6.771,0,6.847-0.31,7.124c-0.295,0.269-0.685,0.281-9.154,0.311 c-5.478,0.02-8.98-0.026-9.199-0.114V19.006z M42.499,12.672c0-3.391-0.037-4.262-0.183-4.173c-0.103,0.063-1.674,1.274-3.493,2.691 c-3.771,2.938-3.96,3.057-4.443,2.805c-0.185-0.099-1.792-1.307-3.572-2.687c-1.78-1.379-3.318-2.572-3.419-2.651 c-0.146-0.114-0.184,0.725-0.184,4.076v4.221h7.647h7.646L42.499,12.672L42.499,12.672z M39.325,8.202l2.483-1.937l-3.552-0.039 c-1.953-0.022-5.131-0.022-7.062,0l-3.509,0.039l3.526,2.761l3.525,2.76l1.05-0.824C36.365,10.51,37.957,9.266,39.325,8.202z M47.133,18.998c-0.671-0.372-0.662-0.273-0.656-7.416c0-7.318-0.016-7.143,0.789-7.449c0.572-0.219,17.234-0.21,17.862,0.01 c0.257,0.088,0.53,0.284,0.61,0.432c0.088,0.166,0.145,2.908,0.145,7.045c0,6.452-0.015,6.792-0.281,7.124l-0.281,0.349 l-8.946,0.033C50.051,19.152,47.34,19.115,47.133,18.998L47.133,18.998z M63.823,12.672c0-3.39-0.038-4.262-0.185-4.174 c-0.101,0.062-1.673,1.272-3.492,2.692c-3.771,2.938-3.959,3.057-4.442,2.805c-0.185-0.099-1.793-1.307-3.572-2.687 c-1.778-1.379-3.317-2.572-3.419-2.651c-0.145-0.114-0.184,0.725-0.184,4.076v4.221h7.646h7.646L63.823,12.672L63.823,12.672z M59.582,6.227c-1.953-0.022-5.139-0.022-7.074,0l-3.521,0.039l3.533,2.752l3.535,2.753l3.539-2.753l3.543-2.752L59.582,6.227z"/>  </g></g><g id="ProcessOnG1121" transform="matrix(1.0,0.0,0.0,1.0,377.75,406.0)" opacity="1.0"><g id="ProcessOnG1123" transform="matrix(1.0,0.0,0.0,1.0,0.0,0.0)"> <path fill="#00BCF2" d="M1.691,23.722c-0.731-0.334-1.349-1.041-1.564-1.788c-0.11-0.379-0.146-3.639-0.117-10.245l0.047-9.691 l0.425-0.618c0.266-0.389,0.711-0.764,1.185-1L2.423,0H38h35.573l0.787,0.394c0.514,0.256,0.922,0.603,1.185,1.001l0.399,0.607 l0.046,9.689c0.029,6.607-0.006,9.864-0.117,10.243c-0.218,0.748-0.831,1.454-1.563,1.788C73.729,23.986,72.323,24,38,24 C3.676,23.998,2.268,23.984,1.691,23.722L1.691,23.722z M7.95,20.389c1.541-1.047,1.459-3.533-0.145-4.442 c-1.992-1.137-4.312,0.581-3.882,2.873c0.116,0.634,0.86,1.54,1.497,1.832C6.085,20.955,7.307,20.827,7.95,20.389L7.95,20.389z M70.813,19.645c0.201-0.104,0.289-0.313,0.289-0.669c0-0.353-0.088-0.562-0.289-0.671c-0.188-0.1-2.998-0.155-8.098-0.155 c-8.481,0-8.354-0.012-8.354,0.827c0,0.843-0.127,0.83,8.354,0.83C67.815,19.803,70.625,19.75,70.813,19.645z M70.813,16.645 c0.176-0.096,0.288-0.311,0.287-0.56c-0.006-0.902,0.438-0.856-8.234-0.898c-8.661-0.048-8.505-0.062-8.505,0.788 c0,0.839-0.127,0.825,8.354,0.825C67.815,16.8,70.625,16.751,70.813,16.645L70.813,16.645z M70.813,13.646 c0.409-0.223,0.381-0.963-0.046-1.263c-0.283-0.203-1.293-0.233-7.965-0.233c-4.306,0-7.794,0.063-8,0.14 c-0.459,0.178-0.608,0.728-0.317,1.172l0.222,0.337h7.912C67.782,13.799,70.625,13.744,70.813,13.646L70.813,13.646z"/>  </g></g><g id="ProcessOnG1124" transform="matrix(1.0,0.0,0.0,1.0,80.0,71.0)" opacity="1.0"><g id="ProcessOnG1126" transform="matrix(1.25,0.0,0.0,1.25,0.0,0.0)"> <path fill="#000" d="M6,9v2.969l10,4.667l10-4.667V9H6z M6,13.205V23h20v-9.795 l-10,4.667L6,13.205z"/>  </g></g><g id="ProcessOnG1127" transform="matrix(1.0,0.0,0.0,1.0,226.0,71.0)" opacity="1.0"><g id="ProcessOnG1129" transform="matrix(1.25,0.0,0.0,1.25,0.0,0.0)"> <path fill="#000" d="M6,9v2.969l10,4.667l10-4.667V9H6z M6,13.205V23h20v-9.795 l-10,4.667L6,13.205z"/>  </g></g><g id="ProcessOnG1130" transform="matrix(1.0,0.0,0.0,1.0,80.0,411.0)" opacity="1.0"><g id="ProcessOnG1132" transform="matrix(1.25,0.0,0.0,1.25,0.0,0.0)"> <path fill="#000" d="M17.563,4C11.444,4,6.469,8.977,6.469,15.094 c0,0.287,0.039,0.563,0.063,0.844l-3.031-3l-1.5,1.5l5.75,5.719l5.75-5.719l-1.531-1.5l-3.25,3.125 c-0.035-0.315-0.063-0.644-0.063-0.969c0-4.928,3.979-8.906,8.906-8.906c4.929,0,8.906,3.978,8.906,8.906S22.491,24,17.563,24 c-2.408,0-4.586-0.953-6.188-2.5l-1.563,1.531c2.001,1.954,4.739,3.156,7.75,3.156c6.117,0,11.094-4.977,11.094-11.094 S23.68,4,17.563,4L17.563,4z"/>  </g></g><g id="ProcessOnG1133" transform="matrix(1.0,0.0,0.0,1.0,226.0,341.0)" opacity="1.0"><g id="ProcessOnG1135" transform="matrix(1.25,0.0,0.0,1.25,0.0,0.0)"> <path fill="#000" d="M17.563,4C11.444,4,6.469,8.977,6.469,15.094 c0,0.287,0.039,0.563,0.063,0.844l-3.031-3l-1.5,1.5l5.75,5.719l5.75-5.719l-1.531-1.5l-3.25,3.125 c-0.035-0.315-0.063-0.644-0.063-0.969c0-4.928,3.979-8.906,8.906-8.906c4.929,0,8.906,3.978,8.906,8.906S22.491,24,17.563,24 c-2.408,0-4.586-0.953-6.188-2.5l-1.563,1.531c2.001,1.954,4.739,3.156,7.75,3.156c6.117,0,11.094-4.977,11.094-11.094 S23.68,4,17.563,4L17.563,4z"/>  </g></g><g id="ProcessOnG1136" transform="matrix(1.0,0.0,0.0,1.0,537.0,87.0)" opacity="1.0"><g id="ProcessOnG1138" transform="matrix(1.25,0.0,0.0,1.25,0.0,0.0)"> <path fill="#000" d="M17.563,4C11.444,4,6.469,8.977,6.469,15.094 c0,0.287,0.039,0.563,0.063,0.844l-3.031-3l-1.5,1.5l5.75,5.719l5.75-5.719l-1.531-1.5l-3.25,3.125 c-0.035-0.315-0.063-0.644-0.063-0.969c0-4.928,3.979-8.906,8.906-8.906c4.929,0,8.906,3.978,8.906,8.906S22.491,24,17.563,24 c-2.408,0-4.586-0.953-6.188-2.5l-1.563,1.531c2.001,1.954,4.739,3.156,7.75,3.156c6.117,0,11.094-4.977,11.094-11.094 S23.68,4,17.563,4L17.563,4z"/>  </g></g><g id="ProcessOnG1139" transform="matrix(1.0,0.0,0.0,1.0,537.0,411.0)" opacity="1.0"><g id="ProcessOnG1141" transform="matrix(1.25,0.0,0.0,1.25,0.0,0.0)"> <path fill="#000" d="M17.563,4C11.444,4,6.469,8.977,6.469,15.094 c0,0.287,0.039,0.563,0.063,0.844l-3.031-3l-1.5,1.5l5.75,5.719l5.75-5.719l-1.531-1.5l-3.25,3.125 c-0.035-0.315-0.063-0.644-0.063-0.969c0-4.928,3.979-8.906,8.906-8.906c4.929,0,8.906,3.978,8.906,8.906S22.491,24,17.563,24 c-2.408,0-4.586-0.953-6.188-2.5l-1.563,1.531c2.001,1.954,4.739,3.156,7.75,3.156c6.117,0,11.094-4.977,11.094-11.094 S23.68,4,17.563,4L17.563,4z"/>  </g></g><g id="ProcessOnG1142" transform="matrix(1.0,0.0,0.0,1.0,400.25,527.0)" opacity="1.0"><g id="ProcessOnG1144" transform="matrix(1.25,0.0,0.0,1.25,0.0,0.0)"> <path fill="#000" d="M15.055,6c-3.688,0-6.676,2.989-6.676,6.676 s2.988,6.676,6.676,6.676c3.687,0,6.675-2.989,6.675-6.676S18.741,6,15.055,6z M10.929,14.9h8.252c0,1.493-2.338,2.968-4.126,2.968 C13.266,17.868,10.929,16.314,10.929,14.9z M10.883,19.676C8.28,20.764,6.403,22.835,6,25.285h18.11 c-0.404-2.45-2.281-4.521-4.884-5.609c-1.222,0.729-2.646,1.159-4.172,1.159S12.104,20.405,10.883,19.676L10.883,19.676z"/>  </g></g></g></g></svg>